# xmcd CD database file
#
# Track frame offsets:
#	150
#	13680
#	49434
#	64590
#	86028
#	112439
#	138995
#	155525
#	179738
#
# Disc length: 2514 seconds
#
# Revision: 0
# Processed by: cddbd v1.5.1PL0 Copyright (c) Steve Scherf et al.
# Submitted via: CDex 1.51
#
DISCID=8509d009
DTITLE=Mauricio Einhorn - Jugando en Buenos Aires
DYEAR=1985
DGENRE=Jazz
TTITLE0=Matices para Mauricio
TTITLE1=Solamente amigos
TTITLE2=Mirandinha
TTITLE3=Si no son más de las tres
TTITLE4=Verano
TTITLE5=Corcovado
TTITLE6=Más allá de Palermo
TTITLE7=Uno
TTITLE8=Improvisando
EXTD=YEAR: 1985
EXTT0=
EXTT1=
EXTT2=
EXTT3=
EXTT4=
EXTT5=
EXTT6=
EXTT7=
EXTT8=
PLAYORDER=
